<?xml version="1.0" encoding="UTF-8"?><svg id="Layer_3" xmlns="http://www.w3.org/2000/svg" viewBox="0 0 22.27 22.27"><defs><style>.cls-1{fill:none;stroke:#000;stroke-miterlimit:10;stroke-width:.5px;}</style></defs><g id="_ค้าขาย"><path class="cls-1" d="m3.3,11.29v6.83c0,1.07.87,1.94,1.94,1.94h11.79c1.07,0,1.94-.87,1.94-1.94v-6.83"/><path class="cls-1" d="m11.14,2.21h-6.97l-2.56,3.93c-.1.26-.15.54-.15.84,0,1.32,1.07,2.38,2.38,2.38.99,0,1.83-.6,2.2-1.46h.5c.35.85,1.2,1.46,2.18,1.46s1.83-.6,2.18-1.46h.46c.35.85,1.2,1.46,2.18,1.46s1.83-.6,2.18-1.46h.53c.36.86,1.21,1.46,2.2,1.46,1.32,0,2.38-1.07,2.38-2.38,0-.29-.05-.58-.15-.84l-2.56-3.93h-6.97"/><line class="cls-1" x1="3.3" y1="15.31" x2="18.97" y2="15.31"/><polyline class="cls-1" points="8.52 15.31 8.52 11.41 5.82 11.41 5.82 15.31"/></g></svg>