<?xml version="1.0" encoding="UTF-8"?><svg id="Layer_3" xmlns="http://www.w3.org/2000/svg" viewBox="0 0 22.27 22.27"><defs><style>.cls-1{stroke-linecap:round;stroke-linejoin:round;}.cls-1,.cls-2{fill:none;stroke:#000;stroke-width:.5px;}.cls-2{stroke-miterlimit:10;}</style></defs><g id="_ธุรกิจส่งออก"><path class="cls-2" d="m9.78,7.34l-4.73,1.45c-.19.06-.4.01-.54-.13l-2.16-2.02c-.29-.27-.1-.77.3-.77h1.14c.07,0,.14.02.2.06l1.05.75,10.02-2.98c.44-.13.91-.09,1.33.11l.73.35c.42.2.38.82-.07.96l-4.38,1.34"/><path class="cls-2" d="m9.42,5.38l-2.24-3.23c-.13-.18,0-.43.22-.43h1.15c.17,0,.34.05.48.16l3.52,2.57"/><path class="cls-2" d="m9.85,6.86l-.58,3.91c-.03.19.12.36.31.36h1.03c.13,0,.25-.08.29-.2l2.09-5.32"/><line class="cls-2" x1="14.72" y1="19.56" x2="7.33" y2="19.56"/><path class="cls-2" d="m5.35,19.56h-2.55c-.51,0-.93-.41-.93-.93v-1.15h18.53v1.15c0,.51-.41.93-.93.93h-2.78"/><path class="cls-2" d="m3.32,17.49v-4.1c0-.51.41-.93.93-.93h13.6c.51,0,.93.41.93.93v4.1"/><line class="cls-2" x1="7.23" y1="12.46" x2="7.23" y2="17.49"/><line class="cls-2" x1="4.68" y1="12.46" x2="4.68" y2="13.78"/><line class="cls-2" x1="8.57" y1="12.46" x2="8.57" y2="13.78"/><line class="cls-2" x1="12.36" y1="12.46" x2="12.36" y2="13.78"/><line class="cls-2" x1="16.23" y1="12.46" x2="16.23" y2="13.78"/><line class="cls-2" x1="4.68" y1="14.97" x2="4.68" y2="16.3"/><line class="cls-2" x1="8.57" y1="14.97" x2="8.57" y2="16.3"/><line class="cls-2" x1="12.36" y1="14.97" x2="12.36" y2="16.3"/><line class="cls-2" x1="16.23" y1="14.97" x2="16.23" y2="16.3"/><line class="cls-2" x1="11.04" y1="12.46" x2="11.04" y2="17.49"/><line class="cls-2" x1="14.95" y1="12.46" x2="14.95" y2="17.49"/><line class="cls-2" x1="3.32" y1="14.97" x2="18.77" y2="14.97"/><circle class="cls-2" cx="6.34" cy="19.56" r=".99"/><circle class="cls-2" cx="15.71" cy="19.56" r=".99"/><line class="cls-1" x1="12.74" y1="11.14" x2="20.17" y2="8.96"/><line class="cls-1" x1="19.4" y1="10.48" x2="20.17" y2="8.96"/><line class="cls-1" x1="18.46" y1="8.38" x2="20.17" y2="8.96"/></g></svg>