<?xml version="1.0" encoding="UTF-8"?><svg id="Layer_3" xmlns="http://www.w3.org/2000/svg" viewBox="0 0 22.27 22.27"><defs><style>.cls-1{stroke-linejoin:round;}.cls-1,.cls-2{fill:none;stroke:#000;stroke-width:.5px;}.cls-2{stroke-miterlimit:10;}</style></defs><g id="_สวยรวยมาก"><rect class="cls-2" x="13.22" y="17.17" width="8.15" height="4.29"/><circle class="cls-2" cx="17.29" cy="19.39" r="1.09"/><line class="cls-2" x1="19.39" y1="19.39" x2="20.34" y2="19.39"/><line class="cls-2" x1="14.26" y1="19.39" x2="15.21" y2="19.39"/><circle class="cls-2" cx="17.3" cy="14.24" r="2.15"/><polyline class="cls-1" points="18.28 13.53 16.41 13.53 18.28 15.12 16.41 15.12"/><line class="cls-1" x1="17.3" y1="12.94" x2="17.3" y2="15.61"/><path class="cls-1" d="m10.42,7.38v1.36c0,1.49-1.2,2.69-2.69,2.69h0c-1.49,0-2.69-1.2-2.69-2.69v-1.36"/><path class="cls-1" d="m11.16,7.38h-.56c-.47,0-.91-.22-1.19-.59l-.64-.85-.75.9c-.28.34-.7.54-1.15.54h-2.56v-.58c0-1.89,1.53-3.43,3.43-3.43h0c1.89,0,3.43,1.53,3.43,3.43v.58Z"/><path class="cls-1" d="m6.83,3.49c-.36-.27-.59-.7-.59-1.19,0-.82.67-1.49,1.49-1.49s1.49.67,1.49,1.49c0,.48-.23.92-.59,1.19"/><path class="cls-1" d="m10.42,7.37h.55c.48,0,.87.39.87.87h0c0,.48-.39.87-.87.87h-.55"/><path class="cls-1" d="m5.02,7.37h-.55c-.48,0-.87.39-.87.87h0c0,.48.39.87.87.87h.55"/><path class="cls-1" d="m13.22,21.46h-1.78s.58-2.51.68-2.92-.22-2.01-2.05-2.15l-2.33.98h-.08s-2.33-.98-2.33-.98c-1.83.14-2.15,1.74-2.05,2.15s.68,2.92.68,2.92H.89s.62-4.22.77-5.77,1.26-1.91,1.26-1.91l3.39-.92v-1.83"/><path class="cls-1" d="m9.06,11.03v1.83s3.39.92,3.39.92c0,0,1.11.36,1.26,1.91.04.37.1.89.18,1.48"/><path class="cls-1" d="m10.13,13.15c-.36.99-1.32,1.7-2.44,1.7s-2.07-.71-2.44-1.7"/><circle class="cls-1" cx="7.73" cy="15.66" r=".72"/><line class="cls-1" x1="11.44" y1="21.46" x2="3.94" y2="21.46"/><path class="cls-1" d="m9.07,9.23c0,.76-.62,1.37-1.37,1.37s-1.37-.62-1.37-1.37"/></g></svg>