<?xml version="1.0" encoding="UTF-8"?><svg id="Layer_3" xmlns="http://www.w3.org/2000/svg" viewBox="0 0 22.27 22.27"><defs><style>.cls-1{fill:none;stroke:#000;stroke-linecap:round;stroke-linejoin:round;stroke-width:.5px;}</style></defs><path id="_นารีอุปถัม" class="cls-1" d="m12.4,19.27l8.02-8.17.33-.54c.3-.67.46-1.4.46-2.18,0-2.97-2.41-5.38-5.38-5.38-2.03,0-3.77,1.13-4.69,2.79-.92-1.65-2.66-2.79-4.69-2.79-2.97,0-5.38,2.41-5.38,5.38,0,.78.16,1.51.46,2.18l.33.54,6.56,6.68s-1.16-3.27.11-5.4c.36-.68-.31-1.14-.6-1.25s-.91-1.85.55-2.42c.86-.36,1.46.55,1.43.91,0,0,1.07-1.35,2.47-1.59s2.6-1.3,2.81-2.45c0,0,1.51,1.54,0,3.33-.47.52.05,1.51,1.2,2.55,0,0-.34.63-1.28.47,0,0-.29,2.08-1.62,2.84-.47.21-.83-.89-1.88-.68s-3.76,1.66.76,5.17Z"/></svg>