<?xml version="1.0" encoding="UTF-8"?><svg id="Layer_3" xmlns="http://www.w3.org/2000/svg" viewBox="0 0 22.27 22.27"><defs><style>.cls-1{fill:none;stroke:#000;stroke-linecap:round;stroke-linejoin:round;stroke-width:.5px;}</style></defs><g id="_สติปัญญา"><path class="cls-1" d="m11.27,18.03c0,1.59-1.29,2.88-2.88,2.88s-2.88-1.29-2.88-2.88c0-.1.02-.19.03-.29-.13.02-.27.04-.4.04-1.24,0-2.24-1-2.24-2.24,0-.79.41-1.48,1.03-1.88-.08,0-.16.02-.25.02-1.25,0-2.27-1.01-2.27-2.27,0-.71.33-1.34.85-1.75-.3-.33-.48-.76-.48-1.24,0-1.03.83-1.87,1.87-1.87.13,0,.25.01.37.04-.23-.31-.37-.69-.37-1.11,0-1.03.83-1.87,1.87-1.87.16,0,.31.03.46.06.14-1.31,1.23-2.34,2.58-2.34,1.44,0,2.61,1.17,2.61,2.61v13.83l.12.24Z"/><path class="cls-1" d="m11.01,18.03c0,1.59,1.29,2.88,2.88,2.88s2.88-1.29,2.88-2.88c0-.1-.02-.19-.03-.29.13.02.27.04.4.04,1.24,0,2.24-1,2.24-2.24,0-.79-.41-1.48-1.03-1.88.08,0,.16.02.25.02,1.25,0,2.27-1.01,2.27-2.27,0-.71-.33-1.34-.85-1.75.3-.33.48-.76.48-1.24,0-1.03-.83-1.87-1.87-1.87-.13,0-.25.01-.37.04.23-.31.37-.69.37-1.11,0-1.03-.83-1.87-1.87-1.87-.16,0-.31.03-.46.06-.14-1.31-1.23-2.34-2.58-2.34-1.44,0-2.61,1.17-2.61,2.61v13.83s-.12.24-.12.24Z"/><path class="cls-1" d="m4.7,11.42c0-1.2.88-2.2,2.04-2.37"/><path class="cls-1" d="m9.43,17.22c-1.2,0-2.2-.88-2.37-2.04"/><path class="cls-1" d="m8.96,4.38c0,.98-.72,1.8-1.67,1.94"/><path class="cls-1" d="m8.92,10.76c.18.74-.22,1.48-.9,1.76"/><circle class="cls-1" cx="13.9" cy="5.35" r=".76"/><circle class="cls-1" cx="16.43" cy="7.28" r=".76"/><path class="cls-1" d="m11.13,7.77h1.56c.67,0,1.21-.54,1.21-1.21v-.45"/><path class="cls-1" d="m11.14,10.13h3.77c.84,0,1.52-.68,1.52-1.52v-.57"/><circle class="cls-1" cx="13.9" cy="17.51" r=".76"/><circle class="cls-1" cx="16.43" cy="15.57" r=".76"/><path class="cls-1" d="m11.13,15.08h1.56c.67,0,1.21.54,1.21,1.21v.45"/><path class="cls-1" d="m11.14,12.72h3.77c.84,0,1.52.68,1.52,1.52v.57"/><path class="cls-1" d="m20.02,9.67s-.44.4-1.3.46"/><path class="cls-1" d="m16.31,3.69s-.12.96-.77,1.34"/><path class="cls-1" d="m2.26,9.67s.44.4,1.3.46"/><path class="cls-1" d="m5.97,3.69s.12.96.77,1.34"/></g></svg>