<?xml version="1.0" encoding="UTF-8"?><svg id="Layer_3" xmlns="http://www.w3.org/2000/svg" viewBox="0 0 22.27 22.27"><defs><style>.cls-1{stroke-width:0px;}.cls-2{fill:none;stroke:#000;stroke-miterlimit:10;stroke-width:.5px;}</style></defs><g id="_งานประมูล"><path class="cls-2" d="m9.56,4.23c0-.38-.31-.69-.69-.69h0c-.38,0-.69.31-.69.69v5.37c0,.27.07.54.2.78l.59,1.06c.06.1.09.22.09.34v1.22h3.86v-1.55l2.6-4.27c.2-.32.09-.75-.23-.95l-.06-.03c-.32-.2-.75-.09-.95.23l-.87,1.42c-.17-.1-.37-.16-.59-.16-.66,0-1.2.54-1.2,1.2,0,.4.19.75.49.97"/><path class="cls-2" d="m9.56,6.34v-3.04c0-.38.31-.69.69-.69h0c.38,0,.69.31.69.69"/><path class="cls-2" d="m10.94,6.34v-3.86c0-.38.31-.69.69-.69h0c.38,0,.69.31.69.69v3.81"/><path class="cls-2" d="m13.78,7.25v-3.96c0-.38-.31-.69-.69-.69h0c-.38,0-.69.31-.69.69"/><polyline class="cls-2" points="12.92 13 13.35 13 13.35 14.6"/><polyline class="cls-2" points="9.1 13 8.67 13 8.67 14.6"/><rect class="cls-2" x="8.5" y="14.54" width="5.04" height="5.96"/><path class="cls-2" d="m15.98,11c0-.3-.24-.54-.54-.54h0c-.3,0-.54.24-.54.54v4.21c0,.21.05.42.16.61l.47.83c.05.08.07.17.07.27v.95h3.03v-1.22l2.04-3.35c.16-.25.07-.59-.18-.74l-.04-.03c-.25-.16-.59-.07-.74.18l-.68,1.12c-.14-.08-.29-.12-.46-.12-.52,0-.94.42-.94.94,0,.31.15.59.39.76"/><path class="cls-2" d="m15.98,12.65v-2.39c0-.3.24-.54.54-.54h0c.3,0,.54.24.54.54"/><path class="cls-2" d="m17.06,12.65v-3.03c0-.3.24-.54.54-.54h0c.3,0,.54.24.54.54v2.99"/><path class="cls-2" d="m19.29,13.36v-3.1c0-.3-.24-.54-.54-.54h0c-.3,0-.54.24-.54.54"/><polyline class="cls-2" points="18.61 17.88 18.95 17.88 18.95 19.13"/><polyline class="cls-2" points="15.62 17.88 15.28 17.88 15.28 19.13"/><rect class="cls-2" x="15.14" y="19.08" width="3.96" height="1.41"/><path class="cls-2" d="m6.29,8.66c0-.3.24-.54.54-.54h0c.3,0,.54.24.54.54v4.21c0,.21-.05.42-.16.61l-.47.83c-.05.08-.07.17-.07.27v.95h-3.03v-1.22s-2.04-3.35-2.04-3.35c-.16-.25-.07-.59.18-.74l.04-.03c.25-.16.59-.07.74.18l.68,1.12c.14-.08.29-.12.46-.12.52,0,.94.42.94.94,0,.31-.15.59-.39.76"/><path class="cls-2" d="m6.29,10.31v-2.39c0-.3-.24-.54-.54-.54h0c-.3,0-.54.24-.54.54"/><path class="cls-2" d="m5.21,10.31v-3.03c0-.3-.24-.54-.54-.54h0c-.3,0-.54.24-.54.54v2.99"/><path class="cls-2" d="m2.99,11.03v-3.1c0-.3.24-.54.54-.54h0c.3,0,.54.24.54.54"/><polyline class="cls-2" points="3.66 15.54 3.32 15.54 3.32 16.79"/><polyline class="cls-2" points="6.66 15.54 7 15.54 7 16.79"/><rect class="cls-2" x="3.17" y="16.75" width="3.96" height="3.75" transform="translate(10.3 37.24) rotate(-180)"/><path class="cls-1" d="m19.39,1.78v.74c.47.06.79.29,1.06.57l-.39.44c-.27-.26-.49-.4-.87-.4-.42,0-.68.24-.68.64,0,.96,2.03.74,2.03,2.27,0,.7-.42,1.2-1.15,1.33v.75h-.53v-.73c-.46-.05-.95-.27-1.28-.57l.34-.52c.34.28.7.47,1.11.47.51,0,.76-.26.76-.68,0-1.07-2.03-.88-2.03-2.29,0-.68.43-1.16,1.09-1.28v-.74h.53m.5-.5h-1.53v.87c-.68.27-1.09.88-1.09,1.65,0,1.06.84,1.49,1.39,1.77.47.24.64.36.64.52,0,.12,0,.18-.26.18-.24,0-.5-.11-.79-.36l-.43-.35-.31.46-.34.52-.24.36.32.29c.31.28.7.49,1.11.61v.82h1.53v-.87c.72-.27,1.15-.9,1.15-1.71,0-1.17-.89-1.6-1.47-1.89-.26-.13-.56-.27-.56-.38,0-.09,0-.14.18-.14.2,0,.3.05.52.26l.37.36.34-.38.39-.44.31-.34-.32-.33c-.2-.21-.49-.47-.92-.62v-.84h0Z"/></g></svg>