<?xml version="1.0" encoding="UTF-8"?><svg id="Layer_3" xmlns="http://www.w3.org/2000/svg" viewBox="0 0 22.27 22.27"><defs><style>.cls-1{stroke-linecap:round;}.cls-1,.cls-2{fill:none;stroke:#000;stroke-miterlimit:10;stroke-width:.5px;}</style></defs><g id="_ขายของออนไลน์"><path class="cls-2" d="m8.73,7.64h-3.39c-.1,0-.19-.04-.25-.1s-.1-.15-.1-.25v-1.29c0-.11.05-.22.14-.28.06-.05.14-.08.22-.08h3.39c.08,0,.16.03.22.08.08.07.14.17.14.28v1.29c0,.1-.04.19-.1.25s-.15.1-.25.1Z"/><path class="cls-2" d="m8.73,11.07h-3.39c-.1,0-.19-.04-.25-.1s-.1-.15-.1-.25v-1.29c0-.11.05-.22.14-.28.06-.05.14-.08.22-.08h3.39c.08,0,.16.03.22.08.08.07.14.17.14.28v1.29c0,.1-.04.19-.1.25s-.15.1-.25.1Z"/><path class="cls-2" d="m12.72,5.35h.52c.43,0,.79.35.79.79v1.21h-2.09v-1.21c0-.43.35-.79.79-.79Z"/><path class="cls-2" d="m15.27,11.6h-2.23s-.13,0-.13,0h-2.23c-.1,0-.16-.1-.12-.19l.33-.72.18-3.15c0-.11.09-.19.2-.19h.61"/><path class="cls-2" d="m14.08,7.35h.61c.11,0,.19.08.2.19l.07,1.29"/><path class="cls-1" d="m14.45,8.64l3.13,1.19c.17.06.15.3-.02.35l-1.29.34-.18,1.32c-.02.18-.26.22-.34.06l-1.56-2.97c-.09-.17.08-.36.26-.3Z"/><line class="cls-1" x1="16.28" y1="10.51" x2="17.55" y2="11.64"/><rect class="cls-2" x="1.7" y="2.7" width="18.87" height="13.28" rx="1.06" ry="1.06"/><path class="cls-2" d="m18.94,13.04V4.68c0-.26-.21-.47-.47-.47H3.81c-.26,0-.47.21-.47.47v8.33"/><line class="cls-2" x1="1.7" y1="13.04" x2="20.57" y2="13.04"/><circle class="cls-2" cx="11.14" cy="14.42" r=".72"/><path class="cls-2" d="m14.49,19.57h-6.7c-.22,0-.41-.18-.41-.41v-.6c0-.11.05-.21.12-.29s.18-.12.29-.12h6.7c.22,0,.41.18.41.41v.6c0,.11-.05.21-.12.29s-.18.12-.29.12Z"/><line class="cls-2" x1="9.09" y1="15.98" x2="8.54" y2="18.16"/><line class="cls-2" x1="13.2" y1="15.98" x2="13.75" y2="18.16"/></g></svg>