<?xml version="1.0" encoding="UTF-8"?><svg id="Layer_3" xmlns="http://www.w3.org/2000/svg" viewBox="0 0 22.27 22.27"><defs><style>.cls-1{fill:none;stroke:#000;stroke-miterlimit:10;stroke-width:.5px;}</style></defs><g id="_รักสุขสมหวัง"><circle class="cls-1" cx="4.58" cy="3.49" r="2.68"/><path class="cls-1" d="m8.49,10.93c-.17-2.02-1.86-3.6-3.92-3.6h0c-2.17,0-3.93,1.76-3.93,3.93v3.93s6.23,0,6.23,0"/><circle class="cls-1" cx="17.7" cy="3.49" r="2.68"/><path class="cls-1" d="m15.39,15.19h6.23v-3.93c0-2.17-1.76-3.93-3.93-3.93h0c-2.06,0-3.76,1.59-3.92,3.61"/><circle class="cls-1" cx="11.14" cy="6.68" r="2.13"/><path class="cls-1" d="m15.02,14.78v-.99c0-2.14-1.74-3.88-3.88-3.88h0c-2.14,0-3.88,1.74-3.88,3.88v.78"/><path class="cls-1" d="m15.04,14.68c-.88-.97-2.38-1.04-3.35-.16l-.55.5-.55-.5c-.97-.88-2.47-.81-3.35.16-.88.97-.81,2.47.16,3.35l3.75,3.42,3.75-3.42c.97-.88,1.04-2.38.16-3.35Z"/></g></svg>