<?xml version="1.0" encoding="UTF-8"?><svg id="Layer_3" xmlns="http://www.w3.org/2000/svg" viewBox="0 0 22.27 22.27"><defs><style>.cls-1{fill:none;stroke:#000;stroke-miterlimit:10;stroke-width:.5px;}</style></defs><g id="_วิศวกร"><path class="cls-1" d="m12.61,7.49c.21.2.35.49.35.81,0,.61-.5,1.11-1.11,1.11,0,0-.01,0-.02,0,0,.03,0,.05,0,.08,0,2.05-1.66,3.71-3.71,3.71s-3.71-1.66-3.71-3.71c0-.03,0-.05,0-.08,0,0-.01,0-.02,0-.61,0-1.11-.5-1.11-1.11,0-.38.19-.72.49-.92h8.68l.15.12Z"/><path class="cls-1" d="m3.79,7.37h-.44c-.44,0-.79-.35-.79-.79h0c0-.44.35-.79.79-.79h9.56c.44,0,.79.35.79.79h0c0,.44-.35.79-.79.79h-.44"/><path class="cls-1" d="m9.28,1.51v-.51h-2.21v.48c-2.04.45-3.6,2.18-3.79,4.31h9.7c-.18-2.09-1.7-3.8-3.7-4.28Z"/><line class="cls-1" x1="7.07" y1="1.49" x2="7.07" y2="5.8"/><line class="cls-1" x1="9.28" y1="1.51" x2="9.28" y2="5.8"/><path class="cls-1" d="m6.76,12.88v.9c0,.76.61,1.37,1.37,1.37h0c.76,0,1.37-.61,1.37-1.37v-.9"/><path class="cls-1" d="m6.76,13.74h-1.1c-2.47,0-4.47,2-4.47,4.47v.66c0,.48.39.88.88.88h11.86"/><path class="cls-1" d="m12.84,14.34c-.66-.39-1.43-.61-2.25-.61h-1.1"/><line class="cls-1" x1="3.51" y1="19.75" x2="3.51" y2="14.27"/><line class="cls-1" x1="3.51" y1="16.58" x2="10.8" y2="16.58"/><line class="cls-1" x1="5.29" y1="16.58" x2="5.29" y2="13.76"/><line class="cls-1" x1="10.8" y1="15.36" x2="10.8" y2="13.76"/><rect class="cls-1" x="14.33" y="12.39" width="6.44" height="1.5" rx=".66" ry=".66" transform="translate(14.43 -8.56) rotate(45)"/><rect class="cls-1" x="9.74" y="16.97" width="6.44" height="1.5" rx=".66" ry=".66" transform="translate(16.33 -3.98) rotate(45)"/><line class="cls-1" x1="15.27" y1="11.92" x2="11.75" y2="15.44"/><line class="cls-1" x1="18.77" y1="15.42" x2="15.25" y2="18.94"/><path class="cls-1" d="m17.75,16.44l3.01,3.01c.41.41.41,1.09,0,1.5h0c-.41.41-1.09.41-1.5,0l-3.01-3.01"/></g></svg>