<?xml version="1.0" encoding="UTF-8"?><svg id="Layer_3" xmlns="http://www.w3.org/2000/svg" viewBox="0 0 22.27 22.27"><defs><style>.cls-1{fill:none;stroke:#000;stroke-miterlimit:10;stroke-width:.5px;}</style></defs><g id="_อสังหา"><polygon class="cls-1" points="20.72 9.69 12.59 1.57 12.58 1.57 12.58 1.57 4.45 9.69 7.35 9.69 12.58 4.46 17.82 9.69 20.72 9.69"/><path class="cls-1" d="m1.56,12.02h2.9c.57,0,1.03.46,1.03,1.03v6.63c0,.57-.46,1.03-1.03,1.03H1.56v-8.69h0Z"/><path class="cls-1" d="m5.48,13.51h3.46c.37,0,.74.14,1.01.39l2.3,2.08c.28.25.64.39,1.01.39h2.63c.54,0,.97.44.97.97h0c0,.54-.44.97-.97.97h-3.93c-.39,0-.78-.12-1.11-.34l-1.61-1.07"/><path class="cls-1" d="m16.56,18.14l2.25-1.88c.46-.39,1.16-.33,1.54.14h0c.39.46.33,1.16-.14,1.54l-2.16,1.81c-.67.56-1.51.87-2.38.87h-5.97c-.61,0-1.21-.15-1.75-.44l-2.47-1.32"/><polyline class="cls-1" points="10.39 14.3 10.39 10.52 14.74 10.52 14.74 16.36"/><line class="cls-1" x1="6.78" y1="9.69" x2="6.78" y2="13.51"/><line class="cls-1" x1="18.47" y1="9.69" x2="18.47" y2="16.5"/><circle class="cls-1" cx="12.57" cy="7.9" r="1.07"/></g></svg>