<?xml version="1.0" encoding="UTF-8"?><svg id="Layer_3" xmlns="http://www.w3.org/2000/svg" viewBox="0 0 22.27 22.27"><defs><style>.cls-1{stroke-linejoin:round;}.cls-1,.cls-2{fill:none;stroke:#000;stroke-linecap:round;stroke-width:.5px;}.cls-2{stroke-miterlimit:10;}</style></defs><g id="VIP"><path class="cls-2" d="m11.53,5.2h4.22c.69,0,1.25.56,1.25,1.25v13.49c0,.69-.56,1.25-1.25,1.25H6.53c-.69,0-1.25-.56-1.25-1.25V6.45c0-.69.56-1.25,1.25-1.25h2.41"/><path class="cls-2" d="m11.55,8.96l.41.83c.07.14.2.23.35.25l.91.13c.38.05.53.52.25.78l-.66.64c-.11.11-.16.26-.13.41l.16.91c.06.38-.33.66-.67.48l-.82-.43c-.13-.07-.29-.07-.43,0l-.82.43c-.34.18-.73-.11-.67-.48l.16-.91c.03-.15-.02-.3-.13-.41l-.66-.64c-.27-.27-.12-.73.25-.78l.91-.13c.15-.02.28-.12.35-.25l.41-.83c.17-.34.66-.34.82,0Z"/><polyline class="cls-1" points="7.55 15.08 8.84 18.7 10.17 15.08"/><line class="cls-1" x1="11.44" y1="15.08" x2="11.44" y2="18.7"/><line class="cls-1" x1="12.94" y1="15.08" x2="12.94" y2="18.7"/><path class="cls-1" d="m12.94,15.08h.66c.57,0,1.03.46,1.03,1.03h0c0,.57-.46,1.03-1.03,1.03h-.66"/><polyline class="cls-2" points="9.7 6.66 6.79 1.08 9.38 1.08 12.29 6.66"/><line class="cls-2" x1="13.34" y1="6.66" x2="8.89" y2="6.66"/><polyline class="cls-2" points="12.49 6.66 15.4 1.08 12.81 1.08 11.09 4.37"/></g></svg>