<?xml version="1.0" encoding="utf-8"?>
<!-- Generator: Adobe Illustrator 27.6.1, SVG Export Plug-In . SVG Version: 6.00 Build 0)  -->
<svg version="1.1" xmlns="http://www.w3.org/2000/svg" xmlns:xlink="http://www.w3.org/1999/xlink" x="0px" y="0px"
	 viewBox="0 0 22.3 22.3" style="enable-background:new 0 0 22.3 22.3;" xml:space="preserve">
<style type="text/css">
	.st0{display:none;}
	.st1{display:inline;fill:none;stroke:#000000;stroke-width:0.5;stroke-linejoin:round;stroke-miterlimit:10;}
	.st2{display:inline;fill:none;stroke:#000000;stroke-width:0.5;stroke-miterlimit:10;}
	.st3{fill:none;stroke:#000000;stroke-width:0.5;stroke-miterlimit:10;}
	.st4{display:inline;}
	.st5{display:inline;fill:none;stroke:#000000;stroke-width:0.5;stroke-linejoin:bevel;stroke-miterlimit:10;}
</style>
<g id="Layer_1">
</g>
<g id="Layer_2">
	<g class="st0">
		<path class="st1" d="M20.9,4.2c0,0-5.5-1.1-9.9,0.4S1.4,5,1.4,5s0,13.1,0,13.1c0,0,5.2,1.2,9.6-0.3c4.4-1.5,9.9-0.4,9.9-0.4V4.2z"
			/>
		<ellipse class="st1" cx="11.1" cy="11.1" rx="3.5" ry="4"/>
		<path class="st1" d="M4.9,5.3C4.9,5.6,5,5.8,5,6.1C5,7.7,3.7,9,2.1,9C1.8,9,1.6,9,1.4,8.9"/>
		<path class="st1" d="M17.7,16.9c-0.1-0.3-0.2-0.7-0.2-1c0-1.6,1.3-2.9,2.9-2.9c0.2,0,0.3,0,0.4,0"/>
		<path class="st1" d="M20.9,7.6c-0.2,0-0.3,0-0.5,0c-1.6,0-2.9-1.3-2.9-2.9c0-0.3,0-0.6,0.1-0.9"/>
		<path class="st1" d="M1.4,14.9c0.2-0.1,0.5-0.1,0.7-0.1c1.6,0,2.9,1.3,2.9,2.9c0,0.2,0,0.5-0.1,0.7"/>
		<polyline class="st1" points="10.1,9.4 11.1,9.4 11.1,12.9 		"/>
		<line class="st1" x1="10" y1="12.9" x2="12.2" y2="12.9"/>
	</g>
	<g class="st0">
		<path class="st2" d="M3.4,20.4h15.6c0.6,0,1.2-0.3,1.6-0.7c0.3-0.4,0.5-0.9,0.5-1.4V7.7c0-0.6-0.3-1.2-0.7-1.5
			c-0.4-0.4-0.9-0.6-1.5-0.6H3.4c-0.6,0-1.1,0.2-1.5,0.6C1.5,6.6,1.2,7.1,1.2,7.7v10.6c0,0.4,0.1,0.8,0.4,1.2
			C2,20.1,2.6,20.4,3.4,20.4z"/>
		<line class="st2" x1="1.5" y1="12.4" x2="20.8" y2="12.4"/>
		<path class="st2" d="M8.4,12.5v2.6c0,0.2,0.1,0.4,0.2,0.5c0.1,0.2,0.4,0.3,0.6,0.3H13c0.2,0,0.4-0.1,0.6-0.2
			c0.2-0.1,0.3-0.4,0.3-0.6v-2.7"/>
		<path class="st2" d="M6.5,5.8V3.1c0-0.3,0.1-0.7,0.4-0.9C7.1,2,7.4,1.8,7.8,1.8h6.7c0.2,0,0.5,0.1,0.7,0.2c0.3,0.2,0.6,0.6,0.6,1
			v2.7"/>
	</g>
	<g>
		<path class="st3" d="M15.3,20.8c-0.6,0.3-1.3,0.4-2,0.4H9.7H6.1c-3.7,0-6.1-4.1-4.2-7.3l1.8-3.1l0,0C4.3,9.8,5,9.1,5.8,8.5"/>
		<path class="st3" d="M13.6,8.5c0.8,0.6,1.5,1.3,2.1,2.3l0,0l0.9,1.6"/>
		<path class="st3" d="M16.3,15.9c-0.3-0.4-0.5-0.9-0.5-1.5c0-1.4,1.2-2.6,2.6-2.6c1.4,0,2.6,1.2,2.6,2.6c0,1.3-0.9,2.3-2.2,2.5"/>
		<circle class="st3" cx="16.8" cy="18.6" r="2.6"/>
		<path class="st3" d="M7.2,8.7H6.3c-0.4,0-0.7-0.3-0.7-0.7v0c0-0.4,0.3-0.7,0.7-0.7h0.8"/>
		<path class="st3" d="M8.5,7.2h4.6c0.4,0,0.7,0.3,0.7,0.7v0c0,0.4-0.3,0.7-0.7,0.7H8.5"/>
		<path class="st3" d="M13.3,7.1c1.8-1.8,2.3-3,1.7-3.7c-0.4-0.5-1.3-0.3-1.9-0.1c-0.6,0.2-1.1,0.3-1.8-0.9S10,1.1,10,1.1
			s-0.6,0-0.6,0c0,0-0.6,0.1-1.3,1.3S6.9,3.5,6.3,3.3C5.7,3.1,4.8,2.9,4.4,3.4c-0.6,0.7-0.1,2,1.7,3.7"/>
		<circle class="st3" cx="7.8" cy="11" r="1.2"/>
		<path class="st3" d="M6.5,18h2.6v-3.8c0-0.5-0.4-0.8-0.8-0.8H7.4c-0.5,0-0.8,0.4-0.8,0.8V18z"/>
		<line class="st3" x1="7.6" y1="17.9" x2="7.6" y2="14.9"/>
		<path class="st3" d="M8.8,13.2H6.9c-0.3,0-0.5-0.2-0.5-0.5v0c0-0.2,0.1-0.3,0.2-0.4c0.1-0.1,0.2-0.1,0.4-0.1h1.9
			c0.3,0,0.5,0.2,0.5,0.5v0c0,0.1-0.1,0.3-0.2,0.4C9.1,13.2,8.9,13.2,8.8,13.2z"/>
		<path class="st3" d="M7.3,9.8V7.4c0-0.3,0.3-0.6,0.6-0.6h0c0.3,0,0.6,0.3,0.6,0.6v2.4"/>
		<rect x="17.8" y="13.6" class="st3" width="1.4" height="1.4"/>
		<rect x="16.2" y="18" transform="matrix(0.7071 0.7071 -0.7071 0.7071 18.1887 -6.5092)" class="st3" width="1.4" height="1.4"/>
		<polygon class="st3" points="17.2,9.8 16.3,8.4 17.2,7.1 18.2,8.4 		"/>
	</g>
	<g class="st0">
		<path class="st1" d="M2.8,14.1c0,0,0.8,0.7,0.8,2.1v0.1c0,1.5,1.2,2.7,2.7,2.7h3.4c0.6,0,1.1,0.5,1.1,1.1v0c0,0.6-0.5,1.1-1.1,1.1
			h-4c-2.6,0-4.6-2.1-4.6-4.6v-2.4c0-1.4,1.1-2.5,2.5-2.5h0"/>
		<path class="st1" d="M19.5,14.1c0,0-0.8,0.7-0.8,2.1v0.1c0,1.5-1.2,2.7-2.7,2.7h-3.4c-0.6,0-1.1,0.5-1.1,1.1v0
			c0,0.6,0.5,1.1,1.1,1.1h4c2.6,0,4.6-2.1,4.6-4.6v-2.4c0-1.4-1.1-2.5-2.5-2.5h0"/>
		<path class="st1" d="M6,3H5.8C5.4,3,5.1,3.4,5.1,3.8v0c0,0.4,0.3,0.7,0.7,0.7H7h1.3h0.3c1,0,1.7-0.8,1.7-1.7v0
			c0-1-0.8-1.7-1.7-1.7H5.7C3.1,1,1,3.1,1,5.7V7c0,1.5,1.3,2.8,2.8,2.8h0"/>
		<path class="st1" d="M16.3,3h0.2c0.4,0,0.7,0.3,0.7,0.7v0c0,0.4-0.3,0.7-0.7,0.7h-1.2H14h-0.3c-1,0-1.7-0.8-1.7-1.7v0
			c0-1,0.8-1.7,1.7-1.7h2.9c2.6,0,4.7,2.1,4.7,4.7V7c0,1.5-1.3,2.8-2.8,2.8h0"/>
		<path class="st1" d="M9.1,4.4v4.4c0,0-0.4,1.7-2.1,1.7S4.8,9.1,4.8,9.1"/>
		<path class="st1" d="M5.1,3.8c0,0-1.3,0.5-1.3,1.9c0,0-1.3,0-1.3,1.1s1.3,1.1,1.3,1.1v4.1c0,0,0.6,0.6,1.5,0.6s1.3-0.7,1.3-0.7
			v-1.3"/>
		<path class="st1" d="M17.3,3.8c0,0,1.3,0.5,1.3,1.9c0,0,1.3,0,1.3,1.1s-1.3,1.1-1.3,1.1v4.1c0,0-0.6,0.6-1.5,0.6
			c-0.9,0-1.3-0.7-1.3-0.7v-1.3"/>
		<path class="st1" d="M8.2,7.7H6c0,0,0,1.4,1.1,1.4C7.9,9.2,8.2,8.3,8.2,7.7z"/>
		<path class="st1" d="M7.4,5.8c0,0,0.2,0.6,0.9,0.6c0.7,0,0.8-0.5,0.8-0.5"/>
		<path class="st1" d="M4.7,5.8c0,0,0.2,0.6,0.9,0.6s0.8-0.5,0.8-0.5"/>
		<path class="st1" d="M13.9,4.5V6l-0.8,1.1c0,0-0.4,0.6,0.8,0.6c0,0-0.4,2.8,2.3,2.8c0,0,0.9-0.1,1.4-0.8"/>
		<path class="st1" d="M14,9.1c0,0,1.1,0.2,1.6-0.6"/>
		<path class="st1" d="M15.2,6.3V6c0-0.4,0.3-0.7,0.7-0.7h0c0.4,0,0.7,0.3,0.7,0.7v0.3"/>
		<path class="st1" d="M11.1,19.3l-3-2.1c-1-0.7-1.3-2.1-0.5-3.2l0,0c0.7-1,2.1-1.3,3.2-0.5l0.3,0.2h0.2l0.3-0.2
			c1-0.7,2.4-0.5,3.2,0.5l0,0c0.7,1,0.5,2.4-0.5,3.2l-3,2.1H11.1z"/>
		<path class="st1" d="M6.5,11.8c0,0,1.6-0.1,2.4,1.3"/>
		<path class="st1" d="M15.8,11.8c0,0-1.6-0.1-2.4,1.3"/>
	</g>
	<g class="st0">
		<polyline class="st2" points="13.8,15.9 11.2,18 11.1,18 8.5,15.9 		"/>
		<path class="st2" d="M3.1,10.9C2.3,9.2,2.4,7.1,3.7,5.5l0,0c1.8-2.1,4.9-2.5,7.1-0.7L11.1,5h0.1l0.3-0.2c2.1-1.8,5.3-1.4,7.1,0.7
			l0,0c1.3,1.6,1.5,3.8,0.5,5.6"/>
		<g class="st4">
			<g>
				<g>
					<path class="st3" d="M7,18.6L7,18.6c0.4,0,0.7-0.1,0.9-0.3c0.4-0.3,0.6-0.7,0.6-1.2v-5.4c0-0.8-0.7-1.5-1.5-1.5h0
						c-0.4,0-0.7,0.1-0.9,0.3c-0.3,0.3-0.6,0.7-0.6,1.2v5.4C5.4,17.9,6.1,18.6,7,18.6z"/>
					<path class="st3" d="M4.1,18L4.1,18c0.3,0,0.6-0.1,0.8-0.3c0.3-0.2,0.5-0.6,0.5-1V12c0-0.7-0.6-1.3-1.3-1.3h0
						c-0.3,0-0.6,0.1-0.8,0.3c-0.3,0.2-0.5,0.6-0.5,1v4.6C2.8,17.4,3.4,18,4.1,18z"/>
				</g>
				<g>
					<path class="st3" d="M15.3,18.6L15.3,18.6c-0.4,0-0.7-0.1-0.9-0.3c-0.4-0.3-0.6-0.7-0.6-1.2v-5.4c0-0.8,0.7-1.5,1.5-1.5h0
						c0.4,0,0.7,0.1,0.9,0.3c0.3,0.3,0.6,0.7,0.6,1.2v5.4C16.8,17.9,16.2,18.6,15.3,18.6z"/>
					<path class="st3" d="M18.2,18L18.2,18c-0.3,0-0.6-0.1-0.8-0.3c-0.3-0.2-0.5-0.6-0.5-1V12c0-0.7,0.6-1.3,1.3-1.3h0
						c0.3,0,0.6,0.1,0.8,0.3c0.3,0.2,0.5,0.6,0.5,1v4.6C19.5,17.4,18.9,18,18.2,18z"/>
				</g>
			</g>
			<path class="st3" d="M2.8,15.6h-1c-0.2,0-0.4-0.1-0.6-0.2c-0.4-0.2-0.7-0.6-0.7-1.1v0c0-0.4,0.1-0.7,0.4-0.9
				C1.2,13.2,1.5,13,1.8,13h0.9"/>
			<path class="st3" d="M19.5,13h1c0.4,0,0.8,0.2,1,0.5c0.2,0.2,0.2,0.5,0.2,0.8v0c0,0.4-0.2,0.8-0.5,1c-0.2,0.2-0.5,0.2-0.7,0.2h-1
				"/>
		</g>
	</g>
	<g class="st0">
		<path class="st2" d="M10.7,17.7c0,0-1.6,0-2.8-0.3C3.6,16,0.5,10.5,1.1,9.7c2.7-4,5.8-5.1,7-5.1S11.1,6,11.1,6h0
			c0,0,1.9-1.4,3.1-1.4s4.3,1.2,7,5.1c0.5,0.8-2.6,6.3-6.9,7.7c-1.2,0.4-2.8,0.3-2.8,0.3H10.7z"/>
		<path class="st2" d="M11.2,9.5c0,0,0.9,0,2-0.4s2.6-0.4,5.1,0.9c0,0-1.7,2.9-6.9,3.3h-0.4C5.7,12.9,4,10,4,10
			c2.4-1.2,4-1.2,5.1-0.9s2,0.4,2,0.4H11.2z"/>
	</g>
	<g class="st0">
		<path class="st2" d="M14,15.6v-3.5l0.2,0.7l4,2.9c0.6,0.4,1.4,0.3,1.8-0.3v0c0.4-0.6,0.3-1.4-0.3-1.8l-3-2.2
			c-0.2-0.1-0.3-0.3-0.4-0.4l-1.4-2.6c-0.4-0.7-1.1-1.1-1.9-1.1h-1.9c0,0-0.2,0-0.2,0H9c-0.8,0-1.5,0.4-1.9,1.1L5.8,11
			c-0.1,0.2-0.2,0.3-0.4,0.4l-3,2.2c-0.6,0.4-0.7,1.2-0.3,1.8l0,0c0.4,0.6,1.2,0.7,1.8,0.3l4-2.9l0.2-0.7v3.5"/>
		<circle class="st2" cx="11.1" cy="3.9" r="2.7"/>
		<g class="st4">
			<path class="st3" d="M13.7,21l-8.6-3.3c-0.8-0.3-1.1-1.1-0.8-1.9l0,0C4.4,15.4,4.7,15.2,5,15c0.4-0.2,0.8-0.2,1.2-0.1l8.6,3.3
				c0.8,0.3,1.1,1.1,0.8,1.9l0,0c-0.1,0.3-0.3,0.6-0.6,0.7C14.6,21.1,14.1,21.2,13.7,21z"/>
			<path class="st3" d="M7,18.4c-0.5,0.4-0.8,1.1-0.5,1.7l0,0c0.3,0.8,1.1,1.1,1.9,0.8l2.6-1"/>
			<path class="st3" d="M15.1,18.4l1.9-0.7c0.8-0.3,1.1-1.1,0.8-1.9v0c-0.3-0.8-1.1-1.1-1.9-0.8l-4.9,1.9"/>
		</g>
		<g class="st4">
			<line class="st3" x1="4.5" y1="3.6" x2="4.5" y2="6.3"/>
			<line class="st3" x1="5.8" y1="5" x2="3.2" y2="5"/>
		</g>
		<g class="st4">
			<line class="st3" x1="19.1" y1="7.4" x2="19.1" y2="10.1"/>
			<line class="st3" x1="20.4" y1="8.8" x2="17.8" y2="8.8"/>
		</g>
	</g>
	<g class="st0">
		<path class="st2" d="M9.3,13.5l4-4c0.5-0.5,0.5-1.3,0-1.8l0,0c-0.5-0.5-1.3-0.5-1.8,0l-4.7,4.7c-2,2-2,5.3,0,7.3l0,0
			c2,2,5.3,2,7.3,0l2.4-2.4c0.5-0.5,0.5-1.3,0-1.8l0,0c-0.5-0.5-1.3-0.5-1.8,0l-1.6,1.6"/>
		<path class="st2" d="M11.4,11.4l0.3-0.3c0.5-0.5,1.4-0.5,1.9,0l0,0c0.5,0.5,0.5,1.4,0,1.9l-0.6,0.6"/>
		<path class="st2" d="M12.9,13.6l0.3-0.3c0.5-0.5,1.4-0.5,1.9,0l0,0c0.5,0.5,0.5,1.4,0,1.9l-0.6,0.6"/>
		<line class="st2" x1="12.9" y1="13.6" x2="11.2" y2="15.3"/>
		<path class="st2" d="M7,10.4L6.2,9.6C5.7,9.1,5.9,8.2,6.6,7.9l0,0c0.7-0.2,1.5-0.1,2,0.4l0.3,0.3"/>
		<path class="st2" d="M12.4,1.6c-0.7-0.7-1.8-0.7-2.4,0L9.9,1.7L9.8,1.6c-0.7-0.7-1.8-0.7-2.4,0S6.7,3.3,7.4,4l0.1,0.1l2.4,2.4
			l2.4-2.4L12.4,4C13.1,3.3,13.1,2.2,12.4,1.6z"/>
	</g>
	<g class="st0">
		<path class="st2" d="M8.9,9.8l1.6,1.1c0.5,0.4,1.3,0.4,1.8,0l1.6-1.1c0.8-0.5,1.3-1.4,1.3-2.4V1.5H9.4c-1,0-1.7,0.8-1.7,1.7v4.1
			C7.6,8.3,8.1,9.2,8.9,9.8z"/>
		<polyline class="st2" points="7.6,4.3 14.4,2.7 15.1,1.9 		"/>
		<line class="st2" x1="12" y1="3.2" x2="15" y2="5.1"/>
		<circle class="st2" cx="10" cy="6.3" r="1"/>
		<path class="st2" d="M12.3,8.2c0,0.6-0.5,1-1,1c-0.6,0-1-0.5-1-1"/>
		<circle class="st2" cx="12.6" cy="6.3" r="1"/>
		<line class="st2" x1="8.9" y1="6.3" x2="7.7" y2="6.3"/>
		<line class="st2" x1="14.9" y1="6.3" x2="13.7" y2="6.3"/>
		<path class="st2" d="M7.6,5.5H7.1c-0.5,0-0.9,0.4-0.9,0.9v0c0,0.5,0.4,0.8,0.8,0.8h0.5"/>
		<path class="st2" d="M15,5.5h0.5c0.5,0,0.9,0.4,0.9,0.9v0c0,0.5-0.4,0.8-0.8,0.8h-0.5"/>
		<path class="st2" d="M9.5,10.2V12c0,0.2-0.1,0.3-0.3,0.4L5.1,14c-1.3,0.5-2.2,1.8-2.2,3.2v3c0,0.4,0.4,0.8,0.8,0.8h15.2
			c0.4,0,0.8-0.4,0.8-0.8v-3c0-1.4-0.9-2.7-2.2-3.2l-4.1-1.6c-0.2-0.1-0.3-0.2-0.3-0.4v-1.8"/>
		<path class="st2" d="M6.5,15.4v1.1c0,0.5,0.4,0.8,0.9,0.8l8.5-1.3"/>
		<path class="st2" d="M15.9,15.3V18c0,0.4-0.3,0.7-0.7,0.8L4.4,21"/>
		<line class="st2" x1="11.7" y1="19.5" x2="17.8" y2="20.9"/>
		<line class="st2" x1="14.2" y1="16.2" x2="14.2" y2="18.9"/>
		<polyline class="st2" points="9.4,12.1 11.2,13.3 8.2,14.7 7.5,13.1 		"/>
		<polyline class="st2" points="13.1,12.1 11.3,13.3 14.3,14.7 15,13.1 		"/>
		<circle class="st2" cx="11.2" cy="14.4" r="0.9"/>
		<line class="st2" x1="10.5" y1="15" x2="10" y2="16.8"/>
		<line class="st2" x1="12" y1="15" x2="12.5" y2="16.3"/>
		<path class="st5" d="M19.2,9c0.2,1,0.9,1.8,1.9,1.9h0h0c-1,0.2-1.8,0.9-1.9,1.9v0v0c-0.2-1-0.9-1.8-1.9-1.9h0h0
			C18.3,10.7,19.1,10,19.2,9L19.2,9L19.2,9z"/>
		<path class="st5" d="M3.6,1.3c0.2,1.3,1.3,2.4,2.6,2.6l0,0l0,0C4.9,4.2,3.8,5.2,3.6,6.6l0,0l0,0C3.4,5.2,2.3,4.2,1,3.9l0,0l0,0
			C2.3,3.7,3.4,2.7,3.6,1.3L3.6,1.3L3.6,1.3z"/>
		<path class="st5" d="M4.6,8.7c0.1,0.8,0.8,1.5,1.6,1.6h0l0,0c-0.8,0.1-1.5,0.8-1.6,1.6l0,0v0c-0.1-0.8-0.8-1.5-1.6-1.6l0,0h0
			C3.8,10.2,4.5,9.5,4.6,8.7L4.6,8.7L4.6,8.7z"/>
		<path class="st5" d="M18.2,6.1h0.1c0.7,0,1.3-0.6,1.3-1.3V4.2c0-0.4-0.2-0.8-0.5-1C18.9,3,18.6,3,18.3,3h-0.1
			c-0.7,0-1.3,0.6-1.3,1.3v0.6c0,0.3,0.1,0.7,0.4,0.9C17.5,6,17.8,6.1,18.2,6.1z"/>
		<path class="st5" d="M17.6,5.9v0.7c0,0.2,0.1,0.4,0.2,0.5c0.1,0.1,0.3,0.2,0.5,0.2h0c0.2,0,0.3-0.1,0.5-0.2C18.9,7,19,6.8,19,6.6
			V5.9"/>
		<line class="st5" x1="18.3" y1="6.1" x2="18.3" y2="4.7"/>
		<line class="st5" x1="18.3" y1="1.9" x2="18.3" y2="1.3"/>
		<line class="st5" x1="20.6" y1="4.3" x2="21.3" y2="4.3"/>
		<line class="st5" x1="20" y1="2.6" x2="20.6" y2="1.9"/>
		<line class="st5" x1="16.6" y1="2.6" x2="16" y2="1.9"/>
	</g>
	<g class="st0">
		<path class="st2" d="M2.7,20.9h16.8c0.4,0,0.8-0.2,1.1-0.5c0.3-0.3,0.5-0.7,0.5-1.1v-0.8h-20v0.8c0,0.4,0.2,0.8,0.5,1.1
			C1.9,20.7,2.3,20.9,2.7,20.9z"/>
		<polyline class="st2" points="13.4,18.6 13.4,19.8 8.9,19.8 8.9,18.6 		"/>
		<path class="st2" d="M4.7,6.4H3.2c-0.3,0-0.6,0.1-0.8,0.3C2.2,7,2,7.2,2,7.6v10.9"/>
		<path class="st2" d="M20.2,18.5V7.6c0-0.3-0.1-0.5-0.2-0.7c-0.2-0.3-0.5-0.4-0.9-0.4h-1.5"/>
		<polyline class="st2" points="15.7,7.8 18.9,7.8 18.9,17.2 3.4,17.2 3.4,7.8 6.7,7.8 		"/>
		<path class="st2" d="M15.7,7.5V9c0,0.8-0.3,1.6-0.8,2.1c-0.6,0.6-1.4,1-2.3,1H9.8c-1,0-1.8-0.4-2.4-1.1C7,10.5,6.7,9.8,6.7,9V7.5"
			/>
		<path class="st2" d="M10.7,9.5l-6-3.1C4.3,6.2,4.2,5.9,4.2,5.5c0-0.4,0.2-0.7,0.5-0.9l6-3.1c0.1-0.1,0.3-0.1,0.4-0.1
			c0.2,0,0.3,0,0.5,0.1l6,3.1c0.4,0.2,0.5,0.5,0.5,0.9c0,0.4-0.2,0.7-0.5,0.9l-6,3.1c-0.1,0.1-0.3,0.1-0.4,0.1
			C11.1,9.7,10.9,9.6,10.7,9.5z"/>
		<line class="st2" x1="4.8" y1="14.5" x2="9.1" y2="14.5"/>
		<line class="st2" x1="4.8" y1="15.8" x2="11.1" y2="15.8"/>
		<polyline class="st2" points="11.1,5.3 13.8,8.5 13.8,12.6 		"/>
		<path class="st2" d="M14.5,14c0,0.4-0.3,0.7-0.7,0.7S13,14.4,13,14s0.7-1.6,0.7-1.6S14.5,13.6,14.5,14z"/>
	</g>
</g>
</svg>
