<?xml version="1.0" encoding="UTF-8"?><svg id="Layer_3" xmlns="http://www.w3.org/2000/svg" viewBox="0 0 22.27 22.27"><defs><style>.cls-1{stroke-width:0px;}.cls-2{fill:none;stroke:#000;stroke-miterlimit:10;stroke-width:.5px;}</style></defs><g id="_หงส์"><circle class="cls-2" cx="17.81" cy="6.18" r="2.28"/><path class="cls-2" d="m17.35,3.94l-.42-.42c-1.56-1.56-4.29-1.56-5.84,0-.78.78-1.21,1.82-1.21,2.92s.43,2.14,1.21,2.92l3.6,3.6s.21.79-.59.79c-.46,0-1.03-.15-1.52-.63s-6.51-6.24-6.51-6.24l-.45,1.26-1.87-1.96s-.9,2.38-1.06,3.74c0,0-.63-1.34-.7-1.88,0,0-2.75,7.78,2.25,11.89h13.87s2.83-3.48.86-6.61l-5.92-5.92c-.26-.26-.4-.6-.4-.97s.14-.71.4-.97c.52-.52,1.42-.52,1.93,0l.54.54"/><path class="cls-2" d="m5.6,8.14s-2.62,6.65,3.18,9.13c1.58.7,4.76.62,4.41-3.73"/><line class="cls-2" x1="11.7" y1="17.25" x2="7.13" y2="13.31"/><line class="cls-2" x1="12.8" y1="15.98" x2="9.88" y2="13.46"/><path class="cls-2" d="m2.67,9.92s.55,1.59,2.41,2.57"/><path class="cls-2" d="m20.09,6.4l1.51,2.86c.3.57-.33,1.17-.88.86l-2.91-1.65"/><circle class="cls-1" cx="17.98" cy="5.65" r=".35"/><line class="cls-2" x1="4.23" y1="19.93" x2=".14" y2="19.93"/><line class="cls-2" x1="22.14" y1="19.93" x2="18.04" y2="19.93"/></g></svg>