<?xml version="1.0" encoding="UTF-8"?><svg id="Layer_3" xmlns="http://www.w3.org/2000/svg" viewBox="0 0 22.27 22.27"><defs><style>.cls-1{stroke-linejoin:round;}.cls-1,.cls-2{fill:none;stroke:#000;stroke-width:.5px;}.cls-2{stroke-miterlimit:10;}</style></defs><g id="_สุขภาพดี"><path class="cls-2" d="m16.39,9.03c-1.37-1.37-3.58-1.37-4.95,0l-.32.32-.32-.32c-1.37-1.37-3.58-1.37-4.95,0s-1.37,3.58,0,4.95l.32.32,4.95,4.95,4.95-4.95.32-.32c1.37-1.37,1.37-3.58,0-4.95Z"/><path class="cls-2" d="m6.01,14.12c-4.08-.13-5.5-1.92-5.5-1.92,1.27-5.5,3.4-7.47,3.4-7.47l1.87-.07c.35-.01.65.23.71.57l.18,1.04c.06.32-.12.64-.42.76l-1.21.51-.57-.65-.93,3.57"/><path class="cls-2" d="m5.07,10.26s-1.57-.53-2.11,1.01"/><path class="cls-2" d="m16.26,14.12c4.08-.13,5.5-1.92,5.5-1.92-1.27-5.5-3.4-7.47-3.4-7.47l-1.87-.07c-.35-.01-.65.23-.71.57l-.18,1.04c-.06.32.12.64.42.76l1.21.51.57-.65.93,3.57"/><path class="cls-2" d="m17.2,10.26s1.57-.53,2.11,1.01"/><polygon class="cls-1" points="13.19 3.54 12.08 3.54 12.08 2.42 10.19 2.42 10.19 3.54 9.08 3.54 9.08 5.42 10.19 5.42 10.19 6.53 12.08 6.53 12.08 5.42 13.19 5.42 13.19 3.54"/><polygon class="cls-1" points="20.31 16.85 19.2 16.85 19.2 15.74 17.31 15.74 17.31 16.85 16.2 16.85 16.2 18.73 17.31 18.73 17.31 19.85 19.2 19.85 19.2 18.73 20.31 18.73 20.31 16.85"/><polygon class="cls-1" points="6.07 16.85 4.96 16.85 4.96 15.74 3.08 15.74 3.08 16.85 1.96 16.85 1.96 18.73 3.08 18.73 3.08 19.85 4.96 19.85 4.96 18.73 6.07 18.73 6.07 16.85"/><path class="cls-1" d="m12.64,13.79c-.28.55-.85.92-1.51.92s-1.23-.38-1.51-.92"/><line class="cls-1" x1="9.5" y1="12.82" x2="9.5" y2="12.12"/><line class="cls-1" x1="12.77" y1="12.82" x2="12.77" y2="12.12"/></g></svg>