<?xml version="1.0" encoding="UTF-8"?><svg id="Layer_3" xmlns="http://www.w3.org/2000/svg" viewBox="0 0 22.27 22.27"><defs><style>.cls-1{stroke-linejoin:round;}.cls-1,.cls-2{fill:none;stroke:#000;stroke-width:.5px;}.cls-2{stroke-miterlimit:10;}</style></defs><g id="_ผู้บริหาร"><path class="cls-2" d="m7.27,9.44c-.69,0-1.24-.56-1.24-1.24s.56-1.24,1.24-1.24"/><path class="cls-2" d="m15.28,6.73v2.06c0,.68-.25,1.34-.71,1.85l-1.52,1.69c-.33.37-.81.58-1.31.58h-.35s-.32,0-.32,0h-.35c-.5,0-.97-.21-1.31-.58l-1.52-1.69c-.46-.51-.71-1.17-.71-1.85v-2.06"/><path class="cls-2" d="m15.19,9.44c.69,0,1.24-.56,1.24-1.24s-.56-1.24-1.24-1.24"/><path class="cls-1" d="m14.73,3.43c-.67-1.49-2.16-2.53-3.9-2.53-2.36,0-4.27,1.91-4.27,4.27v1.72h3.73s2.12-.47,2.65-2.14c0,0,.33,2.14,3.03,2.14v-2.34c0-.87-1.24-1.13-1.24-1.13Z"/><polyline class="cls-2" points="9.8 15.58 10.58 16.78 9.8 21.37"/><line class="cls-2" x1="5.28" y1="21.37" x2="5.7" y2="18.23"/><path class="cls-2" d="m14.07,13.53s4.25.65,5.19,3.36c.51,1.47.67,4.48.67,4.48h-8.66s-.26,0-.26,0H2.34s.16-3.01.67-4.48c.94-2.72,5.19-3.36,5.19-3.36"/><polyline class="cls-2" points="14.05 12.91 13.25 16.51 11.27 14.13 11.01 14.13 9.02 16.51 8.22 12.91"/><polyline class="cls-2" points="12.47 15.58 11.69 16.78 12.47 21.37"/><line class="cls-2" x1="16.99" y1="21.37" x2="16.57" y2="18.23"/></g></svg>