<?xml version="1.0" encoding="UTF-8"?><svg id="Layer_3" xmlns="http://www.w3.org/2000/svg" viewBox="0 0 22.27 22.27"><defs><style>.cls-1{fill:none;stroke:#000;stroke-miterlimit:10;stroke-width:.5px;}</style></defs><g id="_เจ้าของกิจการ"><rect class="cls-1" x="2.82" y="6.14" width="2.45" height="2.45"/><rect class="cls-1" x="8.32" y="6.14" width="2.45" height="2.45"/><rect class="cls-1" x="2.82" y="10.43" width="2.45" height="2.45"/><path class="cls-1" d="m8.54,19.34v-2.76c0-.97-.79-1.76-1.76-1.76h0c-.97,0-1.76.79-1.76,1.76v2.76"/><rect class="cls-1" x="8.32" y="10.43" width="2.45" height="2.45"/><path class="cls-1" d="m11.18,19.34H2.5c-.49,0-.94-.2-1.26-.52s-.54-.78-.54-1.29V4.73c0-.53.23-1.01.59-1.34.32-.29.75-.47,1.21-.47h8.47c.48,0,.91.19,1.24.49.35.33.57.8.57,1.31v10.59"/><circle class="cls-1" cx="17.14" cy="11.66" r="2.23"/><path class="cls-1" d="m19.26,16.04h-4.16c-.37,0-.72.09-1.03.24-.76.38-1.29,1.17-1.29,2.08v.35c0,.17.07.32.17.43.11.12.28.2.45.2h7.56c.17,0,.33-.07.44-.18s.18-.27.18-.44v-.35c0-.76-.37-1.44-.93-1.86-.39-.29-.87-.46-1.39-.46Z"/></g></svg>