<?xml version="1.0" encoding="UTF-8"?><svg id="Layer_3" xmlns="http://www.w3.org/2000/svg" viewBox="0 0 22.27 22.27"><defs><style>.cls-1{fill:none;stroke:#000;stroke-miterlimit:10;stroke-width:.5px;}</style></defs><g id="_เลขการเงิน"><path class="cls-1" d="m16.35,20.82H5.92c-1.02,0-1.84-.82-1.84-1.84V3.29c0-1.02.82-1.84,1.84-1.84h6.6l5.68,5.64v11.89c0,1.02-.82,1.84-1.84,1.84Z"/><path class="cls-1" d="m11.72,1.45v5.27c0,.69.56,1.25,1.25,1.25h5.23"/><line class="cls-1" x1="6.01" y1="4.08" x2="9.77" y2="4.08"/><line class="cls-1" x1="6.01" y1="6.64" x2="9.77" y2="6.64"/><path class="cls-1" d="m13.12,12.03h-2.8c-.72,0-1.3.58-1.3,1.3v.08c0,.72.58,1.3,1.3,1.3h1.4c.72,0,1.3.58,1.3,1.3h0c0,.72-.58,1.3-1.3,1.3h-2.7"/><line class="cls-1" x1="11.07" y1="12.03" x2="11.07" y2="10.44"/><line class="cls-1" x1="11.07" y1="18.9" x2="11.07" y2="17.31"/></g></svg>