<?xml version="1.0" encoding="UTF-8"?><svg id="Layer_3" xmlns="http://www.w3.org/2000/svg" viewBox="0 0 22.27 22.27"><defs><style>.cls-1{fill:none;stroke:#000;stroke-linecap:round;stroke-linejoin:round;stroke-width:.5px;}</style></defs><g id="_เสริมเสน่"><path class="cls-1" d="m11.05,14.32l-1.94,1.94c-.36.36-.93.36-1.29,0h0c-.36-.36-.36-.93,0-1.29l3.88-3.88c.36-.36.36-.93,0-1.29l-.04-.04c-.36-.36-.93-.36-1.29,0h-.01c-.36.37-.36.95,0,1.3l1.98,1.98-1.28,1.28Z"/><path class="cls-1" d="m11.05,14.33l1.94-1.94c.36-.36.93-.36,1.29,0h0c.36.36.36.93,0,1.29l-3.88,3.88c-.36.36-.36.93,0,1.29l.04.04c.36.36.93.36,1.29,0h.01c.36-.37.36-.95,0-1.3l-1.98-1.98,1.28-1.28Z"/><path class="cls-1" d="m11.07,16.92l-3.16-3.16c-.36-.36-.36-.93,0-1.29h0c.36-.36.93-.36,1.29,0l.56.56"/><path class="cls-1" d="m9.87,13.14l3.16,3.16c.36.36.93.36,1.29,0h0c.36-.36.36-.93,0-1.29l-1.98-1.98"/><polygon class="cls-1" points="13.58 3.56 8.7 3.56 4.78 7.63 4.78 21.34 17.49 21.34 17.49 7.63 13.58 3.56"/><circle class="cls-1" cx="11.14" cy="6.39" r="1.22"/><path class="cls-1" d="m9.71,3.56c-.17-.27-.27-.58-.27-.93,0-.94.76-1.7,1.7-1.7s1.7.76,1.7,1.7c0,.2-.04.4-.1.58l-1.72,3.41"/></g></svg>