<?xml version="1.0" encoding="UTF-8"?><svg id="Layer_3" xmlns="http://www.w3.org/2000/svg" viewBox="0 0 22.27 22.27"><defs><style>.cls-1{stroke-linejoin:round;}.cls-1,.cls-2{fill:none;stroke:#000;stroke-linecap:round;stroke-width:.5px;}.cls-2{stroke-miterlimit:10;}</style></defs><g id="_เบอร์มังกร"><path class="cls-2" d="m12.86,9.5s1.41-1.27,1.65-3.31-.04-2.37.7-2.86,2.05-.62,4.58,1.54c1,.84,1.85,2.34,1.37,2.67s-1.66-.15-2.2.6-.22,1.32-1.04,1.2-2.16-.51-3.26,1.15"/><path class="cls-1" d="m10.77,4.64c.5.71.68,1.54.68,2.12,0,1.19,1.07,1.75,1.82,2.3"/><path class="cls-1" d="m7.04,12.14c-.22-1.17.03-2.05.03-2.05h-3.55s-2.55-.06-2.55-2.15,3.28-2.07,3.28-2.07c0,0,.8-2.6,3.63-2.6.28,0,.54.02.78.06"/><path class="cls-1" d="m10.33,16.26c-.12-.07-.25-.14-.38-.22-.64-.38-1.14-.8-1.54-1.22"/><path class="cls-1" d="m15.26,9.8s6.27,2.2,4.74,7.53-6.97,3.87-6.97,3.87c0,0,4.15-1.5,3.61-4.64,0,0-1.29.85-3.35.65"/><path class="cls-2" d="m16.63,5.12s.95.91,1.11,2.37"/><path class="cls-2" d="m8.17,11.34s-2.59,1.55-2.59,2.92,1.8,1.81,2.34,1.2,1.19-1.37,1.77-1.51"/><path class="cls-2" d="m11.85,14.33s-2.26,2.21-1.7,3.67,2.01.97,2.26.66.47-1.71,1.44-1.99"/><path class="cls-1" d="m12.2,2.96s1.13-1.06.43-1.64-1.43-.6-1.87.27-2.51,1.61-2.42,2.6,1.54.85,1.79.65,1.47-1.53,2.07-1.88Z"/><path class="cls-1" d="m10.68,1.71s-.62-.93-1.33-.81-.67.91-1.26,1.24-1.38.79-1.57,1.36"/><path class="cls-1" d="m6.28,6.73c0-.4.33-.73.73-.73s.73.33.73.73"/><path class="cls-1" d="m4.35,7.71c-.15.31-.47.53-.84.53s-.69-.22-.84-.53"/></g></svg>